<svg width="40" height="40" viewBox="0 0 40 40" fill="none" xmlns="http://www.w3.org/2000/svg">
<path fill-rule="evenodd" clip-rule="evenodd" d="M8.75004 15C8.75004 12.0163 9.9353 9.15483 12.0451 7.04505C14.1549 4.93526 17.0164 3.75 20 3.75C22.9837 3.75 25.8452 4.93526 27.955 7.04505C30.0648 9.15483 31.25 12.0163 31.25 15V16.25C31.25 19.7883 32.5834 23.0117 34.78 25.45C34.9169 25.6016 35.0145 25.7845 35.0643 25.9826C35.1141 26.1807 35.1146 26.388 35.0657 26.5863C35.0169 26.7846 34.9202 26.968 34.7841 27.1203C34.648 27.2726 34.4766 27.3892 34.285 27.46C31.7117 28.41 29.0184 29.11 26.2334 29.5317C26.2961 30.3886 26.1814 31.2492 25.8966 32.0598C25.6117 32.8704 25.1628 33.6136 24.5779 34.2429C23.9929 34.8722 23.2845 35.3742 22.4969 35.7174C21.7092 36.0606 20.8592 36.2378 20 36.2378C19.1408 36.2378 18.2909 36.0606 17.5032 35.7174C16.7156 35.3742 16.0071 34.8722 15.4222 34.2429C14.8372 33.6136 14.3883 32.8704 14.1035 32.0598C13.8186 31.2492 13.704 30.3886 13.7667 29.5317C11.0195 29.1153 8.32168 28.4207 5.71504 27.4583C5.52359 27.3877 5.35236 27.2712 5.21631 27.1191C5.08025 26.967 4.9835 26.7839 4.9345 26.5858C4.88551 26.3877 4.88577 26.1806 4.93525 25.9826C4.98473 25.7846 5.08194 25.6018 5.21837 25.45C7.49638 22.9278 8.75517 19.6487 8.75004 16.25V15ZM16.2534 29.8333C16.232 30.3386 16.3132 30.8431 16.4918 31.3162C16.6705 31.7894 16.9431 32.2215 17.2931 32.5866C17.6431 32.9517 18.0633 33.2422 18.5285 33.4406C18.9937 33.6391 19.4943 33.7414 20 33.7414C20.5058 33.7414 21.0063 33.6391 21.4715 33.4406C21.9367 33.2422 22.357 32.9517 22.707 32.5866C23.057 32.2215 23.3296 31.7894 23.5082 31.3162C23.6869 30.8431 23.768 30.3386 23.7467 29.8333C21.254 30.0579 18.7461 30.0579 16.2534 29.8333Z" fill="currentColor"/>
</svg>
