<svg width="100" height="100" viewBox="0 0 100 100" fill="none" xmlns="http://www.w3.org/2000/svg">
<path d="M14.7097 10.2903C13.4893 9.0699 11.5107 9.0699 10.2903 10.2903C9.0699 11.5107 9.0699 13.4893 10.2903 14.7097L85.2903 89.7097C86.5107 90.9301 88.4893 90.9301 89.7097 89.7097C90.9301 88.4893 90.9301 86.5107 89.7097 85.2903L14.7097 10.2903Z" fill="currentColor"/>
<path d="M85.712 68.6478C84.7803 68.9917 83.8424 69.3225 82.8984 69.6401L30.4954 17.2371C35.5519 12.3686 42.4264 9.375 50 9.375C65.5331 9.375 78.125 21.967 78.125 37.5L78.1242 37.7049V40.625C78.1242 49.4714 81.4618 57.5308 86.9515 63.6245C87.6453 64.3946 87.9121 65.4585 87.6637 66.4648C87.4154 67.4711 86.6843 68.2888 85.712 68.6478Z" fill="currentColor"/>
<path fill-rule="evenodd" clip-rule="evenodd" d="M21.875 37.4992C21.8751 36.7333 21.9057 35.9745 21.9658 35.2241L65.2334 78.4917C63.6473 85.4402 57.4292 90.625 50 90.625C41.3706 90.625 34.375 83.6294 34.375 75C34.375 74.6068 34.3896 74.2167 34.4183 73.8302C27.4556 72.7747 20.7203 71.0229 14.2865 68.6478C13.3141 68.2888 12.583 67.4711 12.3347 66.4648C12.0864 65.4585 12.3532 64.3946 13.0469 63.6245C18.5366 57.5308 21.8742 49.4714 21.8742 40.625L21.875 37.4992ZM40.6342 74.5803C40.6281 74.7193 40.625 74.8592 40.625 75C40.625 80.1777 44.8224 84.375 50 84.375C55.1777 84.375 59.375 80.1777 59.375 75C59.375 74.8592 59.372 74.7192 59.3659 74.5802C56.2801 74.8581 53.1559 75 49.9992 75C46.8431 75 43.7194 74.8581 40.6342 74.5803Z" fill="currentColor"/>
</svg>
