<svg width="30" height="30" viewBox="0 0 30 30" fill="none" xmlns="http://www.w3.org/2000/svg">
<path fill-rule="evenodd" clip-rule="evenodd" d="M2.8125 15C2.8125 8.26875 8.26875 2.8125 15 2.8125C21.7313 2.8125 27.1875 8.26875 27.1875 15C27.1875 21.7313 21.7313 27.1875 15 27.1875C8.26875 27.1875 2.8125 21.7313 2.8125 15ZM17.035 10.1038C15.9225 9.1325 14.0775 9.1325 12.9663 10.1038C12.7791 10.2675 12.5346 10.3502 12.2864 10.3337C12.0383 10.3172 11.8069 10.2028 11.6431 10.0156C11.4794 9.82848 11.3966 9.58395 11.4132 9.33581C11.4297 9.08768 11.5441 8.85627 11.7313 8.6925C13.5487 7.1025 16.4513 7.1025 18.2687 8.6925C20.16 10.3475 20.16 13.09 18.2687 14.745C17.9525 15.0208 17.6006 15.2529 17.2225 15.435C16.3775 15.845 15.9375 16.4025 15.9375 16.875V17.8125C15.9375 18.0611 15.8387 18.2996 15.6629 18.4754C15.4871 18.6512 15.2486 18.75 15 18.75C14.7514 18.75 14.5129 18.6512 14.3371 18.4754C14.1613 18.2996 14.0625 18.0611 14.0625 17.8125V16.875C14.0625 15.2762 15.3875 14.2413 16.4062 13.7475C16.6337 13.6375 16.845 13.4987 17.035 13.3337C18.0725 12.425 18.0725 11.0125 17.035 10.1038ZM15 22.5C15.2486 22.5 15.4871 22.4012 15.6629 22.2254C15.8387 22.0496 15.9375 21.8111 15.9375 21.5625C15.9375 21.3139 15.8387 21.0754 15.6629 20.8996C15.4871 20.7238 15.2486 20.625 15 20.625C14.7514 20.625 14.5129 20.7238 14.3371 20.8996C14.1613 21.0754 14.0625 21.3139 14.0625 21.5625C14.0625 21.8111 14.1613 22.0496 14.3371 22.2254C14.5129 22.4012 14.7514 22.5 15 22.5Z" fill="currentColor"/>
</svg>
