<svg width="40" height="40" viewBox="0 0 40 40" fill="none" xmlns="http://www.w3.org/2000/svg">
<path fill-rule="evenodd" clip-rule="evenodd" d="M18.5859 4.58606C18.961 4.21112 19.4696 4.00049 19.9999 4.00049C20.5303 4.00049 21.0389 4.21112 21.4139 4.58606L35.4139 18.5861C35.6936 18.8658 35.884 19.2221 35.9611 19.61C36.0382 19.9979 35.9986 20.4 35.8473 20.7654C35.696 21.1308 35.4397 21.4431 35.1109 21.6629C34.782 21.8826 34.3954 22 33.9999 22.0001H31.9999V34.0001C31.9999 34.5305 31.7892 35.0392 31.4142 35.4143C31.0391 35.7894 30.5304 36.0001 29.9999 36.0001H25.9999C25.4695 36.0001 24.9608 35.7894 24.5857 35.4143C24.2107 35.0392 23.9999 34.5305 23.9999 34.0001V28.0001C23.9999 27.4696 23.7892 26.9609 23.4142 26.5858C23.0391 26.2108 22.5304 26.0001 21.9999 26.0001H17.9999C17.4695 26.0001 16.9608 26.2108 16.5857 26.5858C16.2107 26.9609 15.9999 27.4696 15.9999 28.0001V34.0001C15.9999 34.5305 15.7892 35.0392 15.4142 35.4143C15.0391 35.7894 14.5304 36.0001 13.9999 36.0001H9.99994C9.46951 36.0001 8.9608 35.7894 8.58573 35.4143C8.21065 35.0392 7.99994 34.5305 7.99994 34.0001V22.0001H5.99994C5.60444 22 5.21784 21.8826 4.88902 21.6629C4.5602 21.4431 4.30392 21.1308 4.15258 20.7654C4.00124 20.4 3.96164 19.9979 4.03877 19.61C4.11591 19.2221 4.30632 18.8658 4.58594 18.5861L18.5859 4.58606Z" fill="currentColor"/>
</svg>
