<svg width="30" height="30" viewBox="0 0 30 30" fill="none" xmlns="http://www.w3.org/2000/svg">
<path fill-rule="evenodd" clip-rule="evenodd" d="M11.25 2.8125C11.4986 2.8125 11.7371 2.91127 11.9129 3.08709C12.0887 3.2629 12.1875 3.50136 12.1875 3.75V5.6325C14.4205 5.66616 16.65 5.82097 18.8662 6.09625C18.9885 6.11152 19.1065 6.1507 19.2135 6.21158C19.3206 6.27245 19.4146 6.35381 19.4902 6.45103C19.5659 6.54824 19.6216 6.65939 19.6543 6.77814C19.6869 6.89689 19.6959 7.02091 19.6806 7.14313C19.6654 7.26534 19.6262 7.38334 19.5653 7.49041C19.5044 7.59748 19.4231 7.69151 19.3258 7.76713C19.2286 7.84275 19.1175 7.89848 18.9987 7.93115C18.88 7.96381 18.756 7.97277 18.6337 7.9575C17.8087 7.85375 16.98 7.76875 16.1462 7.7C15.4171 10.5447 14.1575 13.2262 12.4337 15.6038C12.8312 16.0837 13.2462 16.545 13.6837 16.9875C13.8581 17.1649 13.9549 17.4042 13.9528 17.653C13.9507 17.9017 13.8499 18.1394 13.6725 18.3138C13.4951 18.4881 13.2558 18.5849 13.007 18.5828C12.7583 18.5807 12.5206 18.4799 12.3462 18.3025C11.9673 17.9172 11.6017 17.5191 11.25 17.1088C9.27673 19.4148 6.87595 21.3172 4.17999 22.7113C3.95904 22.8253 3.70182 22.8469 3.46494 22.7713C3.22806 22.6957 3.03091 22.5291 2.91687 22.3081C2.80283 22.0872 2.78123 21.83 2.85683 21.5931C2.93243 21.3562 3.09904 21.159 3.31999 21.045C5.91201 19.7043 8.20628 17.8535 10.065 15.6038C8.97445 14.0981 8.06722 12.4679 7.36249 10.7475C7.27389 10.5185 7.27865 10.2639 7.37575 10.0384C7.47285 9.81293 7.65453 9.63451 7.88176 9.54152C8.10899 9.44854 8.36362 9.4484 8.59095 9.54114C8.81828 9.63388 9.00016 9.8121 9.0975 10.0375C9.6723 11.4405 10.3938 12.7787 11.25 14.03C12.5985 12.0592 13.6087 9.87713 14.2387 7.57375C10.7766 7.40205 7.30619 7.53045 3.86624 7.9575C3.61943 7.98833 3.37047 7.91985 3.17414 7.76713C2.97782 7.6144 2.8502 7.38994 2.81937 7.14313C2.78854 6.89631 2.85702 6.64735 3.00974 6.45103C3.16247 6.2547 3.38693 6.12708 3.63375 6.09625C5.84991 5.82042 8.07947 5.6656 10.3125 5.6325V3.75C10.3125 3.50136 10.4113 3.2629 10.5871 3.08709C10.7629 2.91127 11.0014 2.8125 11.25 2.8125ZM19.6875 11.25C19.866 11.2499 20.0408 11.3008 20.1914 11.3967C20.342 11.4926 20.462 11.6295 20.5375 11.7912L27.1 25.8538C27.152 25.9654 27.1816 26.0862 27.1869 26.2092C27.1923 26.3322 27.1734 26.4551 27.1312 26.5709C27.0891 26.6866 27.0246 26.7929 26.9414 26.8837C26.8581 26.9745 26.7579 27.048 26.6462 27.1C26.4208 27.2051 26.1629 27.2163 25.9291 27.1312C25.6954 27.0461 25.5051 26.8717 25.4 26.6462L23.9025 23.4375H15.4725L13.975 26.6462C13.8699 26.8717 13.6796 27.0461 13.4458 27.1312C13.2121 27.2163 12.9542 27.2051 12.7287 27.1C12.5033 26.9949 12.3289 26.8046 12.2438 26.5709C12.1587 26.3371 12.1699 26.0792 12.275 25.8538L18.8375 11.7912C18.9129 11.6295 19.033 11.4926 19.1836 11.3967C19.3342 11.3008 19.509 11.2499 19.6875 11.25ZM16.3475 21.5625H23.0275L19.6875 14.405L16.3475 21.5625Z" fill="currentColor"/>
</svg>
