<svg width="30" height="30" viewBox="0 0 30 30" fill="none" xmlns="http://www.w3.org/2000/svg">
<path fill-rule="evenodd" clip-rule="evenodd" d="M11.91 2.14749C12.0414 2.27885 12.1308 2.4463 12.1669 2.62858C12.2029 2.81086 12.184 2.99973 12.1125 3.17124C11.541 4.54275 11.2479 6.01417 11.25 7.49999C11.25 10.4837 12.4353 13.3452 14.545 15.4549C16.6548 17.5647 19.5163 18.75 22.5 18.75C23.9858 18.7521 25.4572 18.459 26.8287 17.8875C27.0001 17.8161 27.1888 17.7972 27.371 17.8332C27.5531 17.8692 27.7204 17.9585 27.8518 18.0897C27.9831 18.2209 28.0725 18.3881 28.1087 18.5702C28.1449 18.7523 28.1262 18.941 28.055 19.1125C27.0575 21.504 25.3747 23.547 23.2184 24.9839C21.062 26.4208 18.5287 27.1876 15.9375 27.1875C8.68875 27.1875 2.8125 21.3125 2.8125 14.0625C2.8125 8.60249 6.14625 3.92249 10.8875 1.94499C11.0588 1.87376 11.2475 1.85498 11.4295 1.89103C11.6115 1.92708 11.7787 2.01633 11.91 2.14749Z" fill="currentColor"/>
</svg>
