<svg width="30" height="30" viewBox="0 0 30 30" fill="none" xmlns="http://www.w3.org/2000/svg">
<path fill-rule="evenodd" clip-rule="evenodd" d="M20.625 5.59756V5.88131C22.2487 6.02979 23.8659 6.24329 25.4725 6.52131C25.5938 6.54232 25.7098 6.58702 25.8138 6.65285C25.9179 6.71869 26.0079 6.80437 26.0788 6.905C26.1498 7.00564 26.2002 7.11926 26.2272 7.23937C26.2542 7.35949 26.2573 7.48375 26.2363 7.60506C26.2152 7.72637 26.1705 7.84235 26.1047 7.94638C26.0389 8.05042 25.9532 8.14046 25.8526 8.21138C25.7519 8.28231 25.6383 8.33271 25.5182 8.35972C25.3981 8.38673 25.2738 8.38982 25.1525 8.36881L24.8913 8.32506L23.635 24.6626C23.5626 25.6045 23.1373 26.4845 22.4441 27.1264C21.7509 27.7684 20.841 28.125 19.8963 28.1251H10.105C9.16025 28.125 8.25033 27.7684 7.55717 27.1264C6.864 26.4845 6.43869 25.6045 6.36626 24.6626L5.10876 8.32506L4.84751 8.36881C4.7262 8.38982 4.60194 8.38673 4.48183 8.35972C4.36171 8.33271 4.24809 8.28231 4.14746 8.21138C3.94421 8.06815 3.80619 7.85005 3.76376 7.60506C3.72132 7.36006 3.77795 7.10825 3.92118 6.905C4.06441 6.70176 4.28251 6.56374 4.52751 6.52131C6.13409 6.24296 7.75124 6.02946 9.37501 5.88131V5.59756C9.37501 3.64256 10.8913 1.97256 12.895 1.90881C14.2984 1.86389 15.7029 1.86389 17.1063 1.90881C19.11 1.97256 20.625 3.64256 20.625 5.59756ZM12.955 3.78256C14.3184 3.73895 15.6829 3.73895 17.0463 3.78256C17.9875 3.81256 18.75 4.60506 18.75 5.59756V5.73881C16.2523 5.58712 13.7477 5.58712 11.25 5.73881V5.59756C11.25 4.60506 12.0113 3.81256 12.955 3.78256ZM12.5113 11.2138C12.5065 11.0907 12.4775 10.9697 12.426 10.8578C12.3745 10.7459 12.3015 10.6452 12.211 10.5615C12.1206 10.4778 12.0146 10.4128 11.899 10.37C11.7835 10.3273 11.6606 10.3078 11.5375 10.3126C11.4144 10.3173 11.2934 10.3463 11.1815 10.3978C11.0696 10.4493 10.9689 10.5224 10.8852 10.6128C10.8015 10.7032 10.7365 10.8092 10.6937 10.9248C10.651 11.0403 10.6315 11.1632 10.6363 11.2863L11.07 22.5363C11.0796 22.7848 11.1875 23.0193 11.37 23.1882C11.4604 23.2718 11.5664 23.3368 11.6818 23.3795C11.7973 23.4222 11.9201 23.4417 12.0431 23.4369C12.1662 23.4322 12.2871 23.4032 12.3989 23.3517C12.5107 23.3003 12.6114 23.2273 12.695 23.1369C12.7786 23.0465 12.8436 22.9406 12.8863 22.8251C12.929 22.7096 12.9485 22.5868 12.9438 22.4638L12.5113 11.2138ZM19.3613 11.2863C19.3704 11.1608 19.3542 11.0348 19.3137 10.9157C19.2731 10.7966 19.209 10.6869 19.1251 10.5931C19.0412 10.4993 18.9394 10.4234 18.8255 10.3698C18.7117 10.3162 18.5882 10.2861 18.4625 10.2812C18.3368 10.2764 18.2114 10.2968 18.0938 10.3415C17.9761 10.3861 17.8687 10.4539 17.7778 10.5409C17.6869 10.628 17.6145 10.7324 17.5649 10.848C17.5152 10.9636 17.4893 11.088 17.4888 11.2138L17.055 22.4638C17.0454 22.7124 17.1349 22.9547 17.304 23.1373C17.473 23.32 17.7076 23.4279 17.9563 23.4376C18.2049 23.4472 18.4472 23.3576 18.6298 23.1886C18.8124 23.0196 18.9204 22.7849 18.93 22.5363L19.3613 11.2863Z" fill="currentColor"/>
</svg>
