<svg width="61" height="61" viewBox="0 0 61 61" fill="none" xmlns="http://www.w3.org/2000/svg">
<path fill-rule="evenodd" clip-rule="evenodd" d="M0.03125 30.5C0.03125 13.6719 13.6719 0.03125 30.5 0.03125C47.3281 0.03125 60.9688 13.6719 60.9688 30.5C60.9688 47.3281 47.3281 60.9688 30.5 60.9688C13.6719 60.9688 0.03125 47.3281 0.03125 30.5ZM30.5 18.7812C31.1216 18.7812 31.7177 19.0282 32.1573 19.4677C32.5968 19.9073 32.8438 20.5034 32.8438 21.125V32.8438C32.8438 33.4654 32.5968 34.0615 32.1573 34.501C31.7177 34.9406 31.1216 35.1875 30.5 35.1875C29.8784 35.1875 29.2823 34.9406 28.8427 34.501C28.4032 34.0615 28.1562 33.4654 28.1562 32.8438V21.125C28.1562 20.5034 28.4032 19.9073 28.8427 19.4677C29.2823 19.0282 29.8784 18.7812 30.5 18.7812ZM30.5 44.5625C31.1216 44.5625 31.7177 44.3156 32.1573 43.876C32.5968 43.4365 32.8438 42.8404 32.8438 42.2188C32.8438 41.5971 32.5968 41.001 32.1573 40.5615C31.7177 40.1219 31.1216 39.875 30.5 39.875C29.8784 39.875 29.2823 40.1219 28.8427 40.5615C28.4032 41.001 28.1562 41.5971 28.1562 42.2188C28.1562 42.8404 28.4032 43.4365 28.8427 43.876C29.2823 44.3156 29.8784 44.5625 30.5 44.5625Z" fill="currentColor"/>
</svg>
